<svg xmlns="http://www.w3.org/2000/svg" width="28.364" height="24" viewBox="0 0 28.364 24">
  <path id="icons8_browse_folder_1" d="M4.182,3A2.181,2.181,0,0,0,2,5.182V24.818A2.181,2.181,0,0,0,4.182,27h24a2.181,2.181,0,0,0,2.182-2.182V7.364a2.181,2.181,0,0,0-2.182-2.182H12.035l-.673-1.123A2.181,2.181,0,0,0,9.491,3ZM15.091,9.545A5.448,5.448,0,0,1,19.638,18L23.5,21.865a1.091,1.091,0,1,1-1.543,1.543L18.1,19.547a5.453,5.453,0,1,1-3-10Zm0,2.182a3.273,3.273,0,0,0,0,6.545C16.9,18.273,18.364,15,18.364,15s-1.465-3.273-3.273-3.273Z" transform="translate(-2 -3)" fill="#6798c6"/>
</svg>
